<svg width="100%" viewBox="0 0 680 820" role="img" xmlns="http://www.w3.org/2000/svg">
  <title>NeuroFox left panel illustration</title>
  <desc>Cyberpunk female face with metallic skin, orange glowing particles, and fiery background</desc>

  <rect x="0" y="0" width="680" height="820" rx="16" fill="#0e0e0e"/>

  <ellipse cx="560" cy="200" rx="260" ry="220" fill="#8B3A00" opacity="0.55"/>
  <ellipse cx="580" cy="160" rx="180" ry="160" fill="#C05A00" opacity="0.4"/>
  <ellipse cx="600" cy="120" rx="120" ry="100" fill="#E07000" opacity="0.3"/>

  <ellipse cx="100" cy="700" rx="180" ry="140" fill="#3D1500" opacity="0.5"/>

  <ellipse cx="340" cy="430" rx="200" ry="280" fill="#1a1a1a"/>

  <path d="M220,180 Q260,120 320,110 Q390,100 430,150 Q470,200 460,280 Q450,360 420,420 Q390,480 350,510 Q310,540 280,520 Q240,500 220,450 Q195,390 200,310 Q205,240 220,180Z" fill="#5a7a7a"/>
  <path d="M220,180 Q260,120 320,110 Q390,100 430,150 Q470,200 460,280 Q450,360 420,420 Q390,480 350,510 Q310,540 280,520 Q240,500 220,450 Q195,390 200,310 Q205,240 220,180Z" fill="#6b9090" opacity="0.6"/>

  <path d="M240,200 Q270,180 310,185 Q350,190 370,220" fill="none" stroke="#8ab0b0" stroke-width="1.5" opacity="0.5"/>
  <path d="M230,240 Q250,230 270,235 Q290,240 300,255" fill="none" stroke="#8ab0b0" stroke-width="1" opacity="0.4"/>
  <path d="M380,200 Q410,185 440,195" fill="none" stroke="#8ab0b0" stroke-width="1" opacity="0.4"/>

  <ellipse cx="290" cy="260" rx="38" ry="22" fill="#1a1a1a"/>
  <ellipse cx="290" cy="262" rx="32" ry="16" fill="#0d0d0d"/>
  <path d="M258,255 Q275,238 300,235 Q320,233 330,245 Q340,255 332,265 Q320,258 310,256 Q295,254 280,258 Z" fill="#1a1010" opacity="0.8"/>
  <ellipse cx="290" cy="260" rx="14" ry="12" fill="#111" opacity="0.95"/>

  <ellipse cx="390" cy="260" rx="38" ry="22" fill="#1a1a1a"/>
  <ellipse cx="390" cy="262" rx="32" ry="16" fill="#0d0d0d"/>
  <path d="M358,255 Q375,238 400,235 Q420,233 430,245 Q440,255 432,265 Q420,258 410,256 Q395,254 380,258 Z" fill="#1a1010" opacity="0.8"/>
  <ellipse cx="390" cy="260" rx="14" ry="12" fill="#111" opacity="0.95"/>

  <path d="M255,248 Q275,238 295,240" fill="none" stroke="#cc7722" stroke-width="1.8" stroke-linecap="round"/>
  <path d="M370,248 Q390,238 415,240" fill="none" stroke="#cc7722" stroke-width="1.8" stroke-linecap="round"/>

  <path d="M300,300 Q320,295 340,300 Q330,312 320,315 Q310,312 300,300Z" fill="#4a6a6a"/>
  <path d="M305,303 Q320,299 335,303" fill="none" stroke="#8ab0b0" stroke-width="0.8" opacity="0.5"/>

  <path d="M280,350 Q310,340 340,342 Q360,345 375,355 Q365,375 345,382 Q325,390 305,385 Q285,378 278,365 Q276,357 280,350Z" fill="#c47a6a" opacity="0.9"/>
  <path d="M290,353 Q320,346 355,356" fill="none" stroke="#e09080" stroke-width="1" opacity="0.6"/>

  <path d="M270,170 Q285,155 310,148 Q340,140 370,148 Q400,156 415,168" fill="none" stroke="#4a3020" stroke-width="8" stroke-linecap="round"/>
  <path d="M265,155 Q285,130 330,120 Q370,112 410,130 Q440,145 450,165" fill="none" stroke="#3a2515" stroke-width="12" stroke-linecap="round"/>
  <path d="M260,145 Q290,110 340,100 Q390,92 430,118 Q460,138 465,162" fill="none" stroke="#2a1a0a" stroke-width="16" stroke-linecap="round"/>
  <path d="M265,138 Q300,105 350,95 Q400,88 435,112" fill="none" stroke="#1a0f05" stroke-width="10" stroke-linecap="round"/>

  <path d="M200,400 Q185,370 190,340 Q195,310 210,290" fill="none" stroke="#78a0a0" stroke-width="18" stroke-linecap="round"/>
  <path d="M198,420 Q178,400 175,370 Q172,340 182,310" fill="none" stroke="#4a7070" stroke-width="28" stroke-linecap="round" opacity="0.7"/>
  <path d="M460,380 Q480,350 478,310 Q476,270 460,240" fill="none" stroke="#78a0a0" stroke-width="14" stroke-linecap="round" opacity="0.5"/>
  <path d="M250,490 Q280,520 320,535 Q360,550 395,535 Q425,522 440,490" fill="none" stroke="#78a0a0" stroke-width="10" stroke-linecap="round" opacity="0.6"/>
  <path d="M200,510 Q220,560 250,600 Q280,640 310,660 Q340,680 360,690 Q380,700 400,680 Q430,650 450,610 Q470,570 460,520" fill="#3a5a5a" opacity="0.4"/>

  <circle cx="290" cy="210" r="2.5" fill="#FF8C00" opacity="0.9"/>
  <circle cx="310" cy="195" r="2" fill="#FFA500" opacity="0.8"/>
  <circle cx="350" cy="188" r="1.8" fill="#FF6600" opacity="0.85"/>
  <circle cx="370" cy="205" r="2.2" fill="#FFB700" opacity="0.9"/>
  <circle cx="330" cy="215" r="1.5" fill="#FF8C00" opacity="0.7"/>
  <circle cx="265" cy="230" r="2" fill="#FFA040" opacity="0.8"/>
  <circle cx="400" cy="215" r="1.8" fill="#FF7700" opacity="0.75"/>
  <circle cx="415" cy="235" r="2.5" fill="#FFB000" opacity="0.9"/>
  <circle cx="240" cy="260" r="1.5" fill="#FF8000" opacity="0.7"/>
  <circle cx="430" cy="260" r="2" fill="#FFA500" opacity="0.8"/>
  <circle cx="280" cy="300" r="1.8" fill="#FF6600" opacity="0.75"/>
  <circle cx="430" cy="295" r="2.2" fill="#FFB700" opacity="0.85"/>
  <circle cx="220" cy="310" r="2" fill="#FF8C00" opacity="0.7"/>
  <circle cx="450" cy="320" r="1.5" fill="#FFA040" opacity="0.75"/>
  <circle cx="240" cy="360" r="2.5" fill="#FF7700" opacity="0.8"/>
  <circle cx="445" cy="370" r="2" fill="#FFB000" opacity="0.85"/>
  <circle cx="260" cy="410" r="1.8" fill="#FF8C00" opacity="0.7"/>
  <circle cx="430" cy="415" r="2.2" fill="#FFA500" opacity="0.8"/>
  <circle cx="300" cy="460" r="2" fill="#FF6600" opacity="0.75"/>
  <circle cx="400" cy="455" r="1.5" fill="#FFB700" opacity="0.7"/>
  <circle cx="340" cy="490" r="2.5" fill="#FF8000" opacity="0.8"/>
  <circle cx="380" cy="475" r="1.8" fill="#FFA040" opacity="0.75"/>
  <circle cx="500" cy="180" r="3" fill="#FF8C00" opacity="0.9"/>
  <circle cx="540" cy="150" r="2.5" fill="#FFB700" opacity="0.85"/>
  <circle cx="520" cy="220" r="2" fill="#FF6600" opacity="0.8"/>
  <circle cx="560" cy="200" r="3.5" fill="#FFA500" opacity="0.7"/>
  <circle cx="580" cy="170" r="2.2" fill="#FF7700" opacity="0.75"/>
  <circle cx="610" cy="240" r="2.8" fill="#FFB000" opacity="0.8"/>
  <circle cx="490" cy="130" r="2" fill="#FF8C00" opacity="0.7"/>
  <circle cx="550" cy="120" r="3" fill="#FFA040" opacity="0.85"/>
  <circle cx="600" cy="140" r="2.5" fill="#FF6600" opacity="0.9"/>
  <circle cx="620" cy="190" r="2" fill="#FFB700" opacity="0.75"/>
  <circle cx="160" cy="250" r="2" fill="#FF8000" opacity="0.65"/>
  <circle cx="140" cy="300" r="1.8" fill="#FFA500" opacity="0.6"/>
  <circle cx="155" cy="360" r="2.2" fill="#FF8C00" opacity="0.65"/>
  <circle cx="170" cy="420" r="1.5" fill="#FF7700" opacity="0.6"/>

  <ellipse cx="290" cy="210" rx="4" ry="4" fill="#FF8C00" opacity="0.25"/>
  <ellipse cx="370" cy="205" rx="5" ry="5" fill="#FFB700" opacity="0.2"/>
  <ellipse cx="415" cy="235" rx="4" ry="4" fill="#FF8C00" opacity="0.2"/>
  <ellipse cx="560" cy="200" rx="7" ry="7" fill="#FFA500" opacity="0.2"/>
  <ellipse cx="550" cy="120" rx="5" ry="5" fill="#FF6600" opacity="0.25"/>

  <path d="M185,580 Q200,540 215,510" fill="none" stroke="#7a9595" stroke-width="6" stroke-linecap="round" opacity="0.5"/>
  <path d="M175,600 Q195,560 210,535" fill="none" stroke="#5a7a7a" stroke-width="10" stroke-linecap="round" opacity="0.4"/>
  <path d="M195,620 Q215,580 235,555 Q255,530 270,545 Q290,560 300,590" fill="#2a4545" opacity="0.5"/>
  <path d="M480,560 Q500,530 510,500 Q520,470 505,450" fill="none" stroke="#5a8080" stroke-width="8" stroke-linecap="round" opacity="0.4"/>
  <path d="M220,700 Q270,720 330,730 Q390,740 440,720 Q490,700 510,670 Q530,640 520,610" fill="none" stroke="#3a5a5a" stroke-width="20" stroke-linecap="round" opacity="0.35"/>

  <rect x="0" y="740" width="680" height="80" rx="0" fill="#0e0e0e" opacity="0.85"/>
  <text x="48" y="780" font-size="32" font-weight="800" fill="#ffffff" font-family="sans-serif">Create Your Vision</text>
  <text x="48" y="805" font-size="14" fill="rgba(255,255,255,0.6)" font-family="sans-serif">AI-assisted workspace to craft and elevate your ideas.</text>
  <rect x="48" y="755" width="22" height="3" rx="1.5" fill="#ffffff" opacity="1"/>
  <rect x="76" y="755" width="22" height="3" rx="1.5" fill="#ffffff" opacity="0.35"/>
  <text x="48" y="58" font-size="15" font-weight="600" fill="#ffffff" font-family="sans-serif">🦊 NeuroFox</text>
</svg>
